<svg xmlns="http://www.w3.org/2000/svg" xmlns:xlink="http://www.w3.org/1999/xlink" version="1.1" class="marks" width="556" height="327" viewBox="0 0 556 327"><rect width="556" height="327" fill="white"/><g fill="none" stroke-miterlimit="10" transform="translate(5,22)"><g class="mark-group role-frame root" role="graphics-object" aria-roledescription="group mark container"><g transform="translate(0,0)"><path class="background" aria-hidden="true" d="M0,0h400v300h-400Z" stroke="#ddd" stroke-width="0"/><g><g class="mark-arc role-mark marks" role="graphics-object" aria-roledescription="arc mark container"><path aria-label="Category: Geography; Tokens: 220024" role="graphics-symbol" aria-roledescription="arc mark" transform="translate(200,150)" d="M44.143782695032954,143.3573383171357A150,150,0,0,0,147.58538548361386,26.80585741313077L0,0Z" fill="#b279a2"/><path aria-label="Category: People; Tokens: 184725" role="graphics-symbol" aria-roledescription="arc mark" transform="translate(200,150)" d="M-128.97069355112532,-76.59347364457183A150,150,0,0,0,-139.23040948027787,55.81122714968872L0,0Z" fill="#e45756"/><path aria-label="Category: Science; Tokens: 154367" role="graphics-symbol" aria-roledescription="arc mark" transform="translate(200,150)" d="M-2.7554552980815446e-14,-150A150,150,0,0,0,-104.03479315593512,-108.05906631561182L0,0Z" fill="#54a24b"/><path aria-label="Category: History; Tokens: 153855" role="graphics-symbol" aria-roledescription="arc mark" transform="translate(200,150)" d="M-67.28619179709666,134.06180810896265A150,150,0,0,0,44.143782695032954,143.3573383171357L0,0Z" fill="#ff9da6"/><path aria-label="Category: Everyday_life; Tokens: 100361" role="graphics-symbol" aria-roledescription="arc mark" transform="translate(200,150)" d="M147.58538548361386,26.80585741313077A150,150,0,0,0,142.45039567096086,-46.98813438716943L0,0Z" fill="#eeca3b"/><path aria-label="Category: Countries; Tokens: 79565" role="graphics-symbol" aria-roledescription="arc mark" transform="translate(200,150)" d="M120.70859387381024,-89.04737708100973A150,150,0,0,0,77.14266321554094,-128.64295360420496L0,0Z" fill="#72b7b2"/><path aria-label="Category: Language_and_literature; Tokens: 65750" role="graphics-symbol" aria-roledescription="arc mark" transform="translate(200,150)" d="M-120.57693246004176,89.22557569736676A150,150,0,0,0,-85.59624103183161,123.17988277807615L0,0Z" fill="#bab0ac"/><path aria-label="Category: Design_and_Technology; Tokens: 63841" role="graphics-symbol" aria-roledescription="arc mark" transform="translate(200,150)" d="M142.45039567096086,-46.98813438716943A150,150,0,0,0,120.70859387381024,-89.04737708100973L0,0Z" fill="#54a24b"/><path aria-label="Category: Citizenship; Tokens: 62802" role="graphics-symbol" aria-roledescription="arc mark" transform="translate(200,150)" d="M77.14266321554094,-128.64295360420496A150,150,0,0,0,33.95756713838106,-146.10572758808036L0,0Z" fill="#e45756"/><path aria-label="Category: Religion; Tokens: 54071" role="graphics-symbol" aria-roledescription="arc mark" transform="translate(200,150)" d="M-104.03479315593512,-108.05906631561182A150,150,0,0,0,-128.97069355112532,-76.59347364457183L0,0Z" fill="#72b7b2"/><path aria-label="Category: Music; Tokens: 38039" role="graphics-symbol" aria-roledescription="arc mark" transform="translate(200,150)" d="M-139.23040948027787,55.81122714968872A150,150,0,0,0,-126.2765992086793,80.95814037075317L0,0Z" fill="#f58518"/><path aria-label="Category: Business_Studies; Tokens: 29105" role="graphics-symbol" aria-roledescription="arc mark" transform="translate(200,150)" d="M33.95756713838106,-146.10572758808036A150,150,0,0,0,12.563995856760371,-149.4728938908701L0,0Z" fill="#f58518"/><path aria-label="Category: IT; Tokens: 28624" role="graphics-symbol" aria-roledescription="arc mark" transform="translate(200,150)" d="M-85.59624103183161,123.17988277807615A150,150,0,0,0,-67.28619179709666,134.06180810896265L0,0Z" fill="#9d755d"/><path aria-label="Category: Art; Tokens: 16890" role="graphics-symbol" aria-roledescription="arc mark" transform="translate(200,150)" d="M12.563995856760371,-149.4728938908701A150,150,0,0,0,9.184850993605149e-15,-150L0,0Z" fill="#4c78a8"/><path aria-label="Category: Mathematics; Tokens: 13486" role="graphics-symbol" aria-roledescription="arc mark" transform="translate(200,150)" d="M-126.2765992086793,80.95814037075317A150,150,0,0,0,-120.57693246004176,89.22557569736676L0,0Z" fill="#4c78a8"/></g><g class="mark-group role-legend" role="graphics-symbol" aria-roledescription="legend" aria-label="Symbol legend titled 'Category' for fill color with 15 values: Art, Business_Studies, Citizenship, Countries, Design_and_Technology, ending with Science"><g transform="translate(418,0)"><path class="background" aria-hidden="true" d="M0,0h128v209h-128Z" pointer-events="none"/><g><g class="mark-group role-legend-entry"><g transform="translate(0,16)"><path class="background" aria-hidden="true" d="M0,0h0v0h0Z" pointer-events="none"/><g><g class="mark-group role-scope" role="graphics-object" aria-roledescription="group mark container"><g transform="translate(0,0)"><path class="background" aria-hidden="true" d="M0,0h127.2060546875v11h-127.2060546875Z" pointer-events="none" opacity="1"/><g><g class="mark-symbol role-legend-symbol" pointer-events="none"><path transform="translate(6,6)" d="M5,0A5,5,0,1,1,-5,0A5,5,0,1,1,5,0" fill="#4c78a8" stroke-width="1.5" opacity="1"/></g><g class="mark-text role-legend-label" pointer-events="none"><text text-anchor="start" transform="translate(16,9)" font-family="sans-serif" font-size="10px" fill="#000" opacity="1">Art</text></g></g><path class="foreground" aria-hidden="true" d="" pointer-events="none" display="none"/></g><g transform="translate(0,13)"><path class="background" aria-hidden="true" d="M0,0h127.2060546875v11h-127.2060546875Z" pointer-events="none" opacity="1"/><g><g class="mark-symbol role-legend-symbol" pointer-events="none"><path transform="translate(6,6)" d="M5,0A5,5,0,1,1,-5,0A5,5,0,1,1,5,0" fill="#f58518" stroke-width="1.5" opacity="1"/></g><g class="mark-text role-legend-label" pointer-events="none"><text text-anchor="start" transform="translate(16,9)" font-family="sans-serif" font-size="10px" fill="#000" opacity="1">Business_Studies</text></g></g><path class="foreground" aria-hidden="true" d="" pointer-events="none" display="none"/></g><g transform="translate(0,26)"><path class="background" aria-hidden="true" d="M0,0h127.2060546875v11h-127.2060546875Z" pointer-events="none" opacity="1"/><g><g class="mark-symbol role-legend-symbol" pointer-events="none"><path transform="translate(6,6)" d="M5,0A5,5,0,1,1,-5,0A5,5,0,1,1,5,0" fill="#e45756" stroke-width="1.5" opacity="1"/></g><g class="mark-text role-legend-label" pointer-events="none"><text text-anchor="start" transform="translate(16,9)" font-family="sans-serif" font-size="10px" fill="#000" opacity="1">Citizenship</text></g></g><path class="foreground" aria-hidden="true" d="" pointer-events="none" display="none"/></g><g transform="translate(0,39)"><path class="background" aria-hidden="true" d="M0,0h127.2060546875v11h-127.2060546875Z" pointer-events="none" opacity="1"/><g><g class="mark-symbol role-legend-symbol" pointer-events="none"><path transform="translate(6,6)" d="M5,0A5,5,0,1,1,-5,0A5,5,0,1,1,5,0" fill="#72b7b2" stroke-width="1.5" opacity="1"/></g><g class="mark-text role-legend-label" pointer-events="none"><text text-anchor="start" transform="translate(16,9)" font-family="sans-serif" font-size="10px" fill="#000" opacity="1">Countries</text></g></g><path class="foreground" aria-hidden="true" d="" pointer-events="none" display="none"/></g><g transform="translate(0,52)"><path class="background" aria-hidden="true" d="M0,0h127.2060546875v11h-127.2060546875Z" pointer-events="none" opacity="1"/><g><g class="mark-symbol role-legend-symbol" pointer-events="none"><path transform="translate(6,6)" d="M5,0A5,5,0,1,1,-5,0A5,5,0,1,1,5,0" fill="#54a24b" stroke-width="1.5" opacity="1"/></g><g class="mark-text role-legend-label" pointer-events="none"><text text-anchor="start" transform="translate(16,9)" font-family="sans-serif" font-size="10px" fill="#000" opacity="1">Design_and_Technology</text></g></g><path class="foreground" aria-hidden="true" d="" pointer-events="none" display="none"/></g><g transform="translate(0,65)"><path class="background" aria-hidden="true" d="M0,0h127.2060546875v11h-127.2060546875Z" pointer-events="none" opacity="1"/><g><g class="mark-symbol role-legend-symbol" pointer-events="none"><path transform="translate(6,6)" d="M5,0A5,5,0,1,1,-5,0A5,5,0,1,1,5,0" fill="#eeca3b" stroke-width="1.5" opacity="1"/></g><g class="mark-text role-legend-label" pointer-events="none"><text text-anchor="start" transform="translate(16,9)" font-family="sans-serif" font-size="10px" fill="#000" opacity="1">Everyday_life</text></g></g><path class="foreground" aria-hidden="true" d="" pointer-events="none" display="none"/></g><g transform="translate(0,78)"><path class="background" aria-hidden="true" d="M0,0h127.2060546875v11h-127.2060546875Z" pointer-events="none" opacity="1"/><g><g class="mark-symbol role-legend-symbol" pointer-events="none"><path transform="translate(6,6)" d="M5,0A5,5,0,1,1,-5,0A5,5,0,1,1,5,0" fill="#b279a2" stroke-width="1.5" opacity="1"/></g><g class="mark-text role-legend-label" pointer-events="none"><text text-anchor="start" transform="translate(16,9)" font-family="sans-serif" font-size="10px" fill="#000" opacity="1">Geography</text></g></g><path class="foreground" aria-hidden="true" d="" pointer-events="none" display="none"/></g><g transform="translate(0,91)"><path class="background" aria-hidden="true" d="M0,0h127.2060546875v11h-127.2060546875Z" pointer-events="none" opacity="1"/><g><g class="mark-symbol role-legend-symbol" pointer-events="none"><path transform="translate(6,6)" d="M5,0A5,5,0,1,1,-5,0A5,5,0,1,1,5,0" fill="#ff9da6" stroke-width="1.5" opacity="1"/></g><g class="mark-text role-legend-label" pointer-events="none"><text text-anchor="start" transform="translate(16,9)" font-family="sans-serif" font-size="10px" fill="#000" opacity="1">History</text></g></g><path class="foreground" aria-hidden="true" d="" pointer-events="none" display="none"/></g><g transform="translate(0,104)"><path class="background" aria-hidden="true" d="M0,0h127.2060546875v11h-127.2060546875Z" pointer-events="none" opacity="1"/><g><g class="mark-symbol role-legend-symbol" pointer-events="none"><path transform="translate(6,6)" d="M5,0A5,5,0,1,1,-5,0A5,5,0,1,1,5,0" fill="#9d755d" stroke-width="1.5" opacity="1"/></g><g class="mark-text role-legend-label" pointer-events="none"><text text-anchor="start" transform="translate(16,9)" font-family="sans-serif" font-size="10px" fill="#000" opacity="1">IT</text></g></g><path class="foreground" aria-hidden="true" d="" pointer-events="none" display="none"/></g><g transform="translate(0,117)"><path class="background" aria-hidden="true" d="M0,0h127.2060546875v11h-127.2060546875Z" pointer-events="none" opacity="1"/><g><g class="mark-symbol role-legend-symbol" pointer-events="none"><path transform="translate(6,6)" d="M5,0A5,5,0,1,1,-5,0A5,5,0,1,1,5,0" fill="#bab0ac" stroke-width="1.5" opacity="1"/></g><g class="mark-text role-legend-label" pointer-events="none"><text text-anchor="start" transform="translate(16,9)" font-family="sans-serif" font-size="10px" fill="#000" opacity="1">Language_and_literature</text></g></g><path class="foreground" aria-hidden="true" d="" pointer-events="none" display="none"/></g><g transform="translate(0,130)"><path class="background" aria-hidden="true" d="M0,0h127.2060546875v11h-127.2060546875Z" pointer-events="none" opacity="1"/><g><g class="mark-symbol role-legend-symbol" pointer-events="none"><path transform="translate(6,6)" d="M5,0A5,5,0,1,1,-5,0A5,5,0,1,1,5,0" fill="#4c78a8" stroke-width="1.5" opacity="1"/></g><g class="mark-text role-legend-label" pointer-events="none"><text text-anchor="start" transform="translate(16,9)" font-family="sans-serif" font-size="10px" fill="#000" opacity="1">Mathematics</text></g></g><path class="foreground" aria-hidden="true" d="" pointer-events="none" display="none"/></g><g transform="translate(0,143)"><path class="background" aria-hidden="true" d="M0,0h127.2060546875v11h-127.2060546875Z" pointer-events="none" opacity="1"/><g><g class="mark-symbol role-legend-symbol" pointer-events="none"><path transform="translate(6,6)" d="M5,0A5,5,0,1,1,-5,0A5,5,0,1,1,5,0" fill="#f58518" stroke-width="1.5" opacity="1"/></g><g class="mark-text role-legend-label" pointer-events="none"><text text-anchor="start" transform="translate(16,9)" font-family="sans-serif" font-size="10px" fill="#000" opacity="1">Music</text></g></g><path class="foreground" aria-hidden="true" d="" pointer-events="none" display="none"/></g><g transform="translate(0,156)"><path class="background" aria-hidden="true" d="M0,0h127.2060546875v11h-127.2060546875Z" pointer-events="none" opacity="1"/><g><g class="mark-symbol role-legend-symbol" pointer-events="none"><path transform="translate(6,6)" d="M5,0A5,5,0,1,1,-5,0A5,5,0,1,1,5,0" fill="#e45756" stroke-width="1.5" opacity="1"/></g><g class="mark-text role-legend-label" pointer-events="none"><text text-anchor="start" transform="translate(16,9)" font-family="sans-serif" font-size="10px" fill="#000" opacity="1">People</text></g></g><path class="foreground" aria-hidden="true" d="" pointer-events="none" display="none"/></g><g transform="translate(0,169)"><path class="background" aria-hidden="true" d="M0,0h127.2060546875v11h-127.2060546875Z" pointer-events="none" opacity="1"/><g><g class="mark-symbol role-legend-symbol" pointer-events="none"><path transform="translate(6,6)" d="M5,0A5,5,0,1,1,-5,0A5,5,0,1,1,5,0" fill="#72b7b2" stroke-width="1.5" opacity="1"/></g><g class="mark-text role-legend-label" pointer-events="none"><text text-anchor="start" transform="translate(16,9)" font-family="sans-serif" font-size="10px" fill="#000" opacity="1">Religion</text></g></g><path class="foreground" aria-hidden="true" d="" pointer-events="none" display="none"/></g><g transform="translate(0,182)"><path class="background" aria-hidden="true" d="M0,0h127.2060546875v11h-127.2060546875Z" pointer-events="none" opacity="1"/><g><g class="mark-symbol role-legend-symbol" pointer-events="none"><path transform="translate(6,6)" d="M5,0A5,5,0,1,1,-5,0A5,5,0,1,1,5,0" fill="#54a24b" stroke-width="1.5" opacity="1"/></g><g class="mark-text role-legend-label" pointer-events="none"><text text-anchor="start" transform="translate(16,9)" font-family="sans-serif" font-size="10px" fill="#000" opacity="1">Science</text></g></g><path class="foreground" aria-hidden="true" d="" pointer-events="none" display="none"/></g></g></g><path class="foreground" aria-hidden="true" d="" pointer-events="none" display="none"/></g></g><g class="mark-text role-legend-title" pointer-events="none"><text text-anchor="start" transform="translate(0,9)" font-family="sans-serif" font-size="11px" font-weight="bold" fill="#000" opacity="1">Category</text></g></g><path class="foreground" aria-hidden="true" d="" pointer-events="none" display="none"/></g></g><g class="mark-group role-title"><g transform="translate(200,-17)"><path class="background" aria-hidden="true" d="M0,0h0v0h0Z" pointer-events="none"/><g><g class="mark-text role-title-text" role="graphics-symbol" aria-roledescription="title" aria-label="Title text 'Tokens per category'" pointer-events="none"><text text-anchor="middle" transform="translate(0,10)" font-family="sans-serif" font-size="13px" font-weight="bold" fill="#000" opacity="1">Tokens per category</text></g></g><path class="foreground" aria-hidden="true" d="" pointer-events="none" display="none"/></g></g></g><path class="foreground" aria-hidden="true" d="" display="none"/></g></g></g></svg>